<svg xmlns="http://www.w3.org/2000/svg" viewBox="0 0 24 24" role="img" aria-hidden="true">
  <circle cx="12" cy="12" r="11" fill="#1d4ed8"/>
  <path fill="#ffffff" d="M6.5 6A1.5 1.5 0 0 1 8 4.5h5A1.5 1.5 0 0 1 14.5 6v12A1.5 1.5 0 0 1 13 19.5H8A1.5 1.5 0 0 1 6.5 18V6zm2 0v3.5h3V6h-3zm7 .5A1.5 1.5 0 0 1 17 8v5.17c0 .28.11.54.3.74l.8.8a1 1 0 0 0 1.7-.7V9.5H18V8a.5.5 0 0 1 .85-.35l1.8 1.8A2 2 0 0 1 21 11v4.94a2.81 2.81 0 0 1-.82 2l-.7.7A2.5 2.5 0 0 1 17.7 19l-.7-.71a1.99 1.99 0 0 1-.59-1.42V6.5h-1z"/>
</svg>
